
<svg xmlns="http://www.w3.org/2000/svg"
     class="svg-snoweb svg-theme-dark"
     x="0"
     y="0"
     width="100%"
     height="100%"
     viewBox="0 0 100 100"
     preserveAspectRatio="xMidYMid meet"
>
<defs>
    <style>
        
            
            
            
        

        .svg-fill-primary {
            fill: #FFF;
        }

        .svg-fill-secondary {
            fill: #65CDAE;
        }

        .svg-fill-tertiary {
            fill: #37A987;
        }

        .svg-stroke-primary {
            stroke: #FFF;
        }

        .svg-stroke-secondary {
            stroke: #65CDAE;
        }

        .svg-stroke-tertiary {
            stroke: #37A987;
        }
    </style>
</defs>
    <path d="M86.7,59.2A97.1,97.1,0,0,1,50,66.3a97.1,97.1,0,0,1-36.7-7.1m53-29.6V21.4a8.1,8.1,0,0,0-8.1-8.1H41.8a8.1,8.1,0,0,0-8.1,8.1v8.2M50,54.1h0M21.4,86.7H78.6a8.1,8.1,0,0,0,8.1-8.1V37.8a8.1,8.1,0,0,0-8.1-8.2H21.4a8.1,8.1,0,0,0-8.1,8.2V78.6A8.1,8.1,0,0,0,21.4,86.7Z"
      class="svg-stroke-primary"
      fill="none"
      stroke-linecap="round"
      stroke-linejoin="round"
      stroke-width="8"/>
</svg>